<?xml version="1.0" encoding="UTF-8" standalone="no"?>
<!-- Generator: Adobe Illustrator 27.5.0, SVG Export Plug-In . SVG Version: 6.00 Build 0)  -->

<svg
   version="1.1"
   id="svg5"
   x="0px"
   y="0px"
   viewBox="0 0 499.99998 500.00002"
   xml:space="preserve"
   sodipodi:docname="Twitter-X-icon.svg"
   width="500"
   height="500"
   xmlns:inkscape="http://www.inkscape.org/namespaces/inkscape"
   xmlns:sodipodi="http://sodipodi.sourceforge.net/DTD/sodipodi-0.dtd"
   xmlns="http://www.w3.org/2000/svg"
   xmlns:svg="http://www.w3.org/2000/svg"><defs
   id="defs13" /><sodipodi:namedview
   id="namedview11"
   pagecolor="#ffffff"
   bordercolor="#000000"
   borderopacity="0.25"
   inkscape:showpageshadow="2"
   inkscape:pageopacity="0.0"
   inkscape:pagecheckerboard="0"
   inkscape:deskcolor="#d1d1d1"
   showgrid="false" />
<style
   type="text/css"
   id="style2">
	.st0{stroke:#FFFFFF;stroke-miterlimit:10;}
	.st1{fill:#FFFFFF;}
</style>
<g
   id="g545"
   transform="matrix(0.51885512,0,0,0.51885512,-182.87046,-66.810324)"><path
     id="circle4"
     style="stroke:#ffffff;stroke-miterlimit:10"
     class="st0"
     d="M 834.28003,129.26493 A 481.32999,481.32999 0 0 0 352.94995,610.595 481.32999,481.32999 0 0 0 834.28003,1091.925 481.32999,481.32999 0 0 0 1315.6101,610.595 481.32999,481.32999 0 0 0 834.28003,129.26493 Z" /><g
     id="layer1"
     transform="translate(52.390029,-25.060029)">
		<path
   id="path1009"
   class="st1"
   d="M 485.39,356.79 715.46,664.41 483.94,914.52 h 52.11 l 202.7,-218.98 163.77,218.98 h 177.32 L 836.82,589.6 1052.32,356.79 h -52.11 L 813.54,558.46 662.71,356.79 Z m 76.63,38.38 h 81.46 l 359.72,480.97 h -81.46 z" />
	</g></g>
</svg>
